<svg xmlns="http://www.w3.org/2000/svg" width="37" height="37" viewBox="0 0 35 37" fill="currentColor" version="1.1"><path d="M 7.053 3.750 L 6.011 7.500 6.006 10.691 L 6 13.882 5.166 14.398 L 4.331 14.913 4.165 19.147 L 3.999 23.382 4.750 23.941 L 5.500 24.500 9.250 28.753 L 13 33.006 13 32.329 L 13 31.651 15.500 34 L 18 36.349 20.500 34 L 23 31.651 23 32.329 L 23 33.006 26.750 28.753 L 30.500 24.500 31.250 23.941 L 32.001 23.382 31.835 19.147 L 31.669 14.913 30.834 14.398 L 30 13.882 29.994 10.691 L 29.989 7.500 28.947 3.750 L 27.906 0 27.127 0 L 26.349 0 24.184 2.305 L 22.019 4.609 18.042 4.509 L 14.065 4.410 11.718 2.205 L 9.371 0 8.733 0 L 8.094 0 7.053 3.750 M 8 5.410 L 8 6.865 10.075 7.524 L 12.151 8.183 12.607 7.727 L 13.062 7.271 10.531 5.612 L 8 3.954 8 5.410 M 24.500 6 L 22.690 8 23.763 8 L 24.836 8 26.418 7.393 L 28 6.786 28 5.393 L 28 4 27.155 4 L 26.310 4 24.500 6 M 15.781 7.250 L 15.063 9 13.425 9 L 11.788 9 9.849 11.465 L 7.910 13.929 8.124 14.215 L 8.338 14.500 7.039 17 L 5.741 19.500 8.675 16.750 L 11.609 14 12.864 14 L 14.118 14 13.500 13 L 12.882 12 14.548 12 L 16.214 12 15.638 13.500 L 15.063 15 18 15 L 20.937 15 20.362 13.500 L 19.786 12 21.452 12 L 23.118 12 22.500 13 L 21.882 14 23.136 14 L 24.391 14 27.325 16.750 L 30.259 19.500 29.228 17.500 L 28.197 15.500 28.143 14.715 L 28.090 13.929 26.151 11.465 L 24.212 9 22.575 9 L 20.937 9 20.362 7.500 L 19.786 6 19.066 6 L 18.346 6 18.787 9 L 19.227 12 18.177 12 L 17.127 12 16.813 8.750 L 16.500 5.500 15.781 7.250 M 12 17.500 L 12 18 12.500 18 L 13 18 13 17.500 L 13 17 12.500 17 L 12 17 12 17.500 M 16.161 19.547 L 15 22.094 15 23.297 L 15 24.500 18 24.500 L 21 24.500 21 23.297 L 21 22.094 19.839 19.547 L 18.679 17 18 17 L 17.321 17 16.161 19.547 M 23 17.500 L 23 18 23.500 18 L 24 18 24 17.500 L 24 17 23.500 17 L 23 17 23 17.500 M 10 19.342 L 10 20.755 11.342 21.869 L 12.684 22.983 13.342 22.325 L 14 21.667 14 20.869 L 14 20.070 12 19 L 10 17.930 10 19.342 M 23.488 19.398 L 21.500 20.865 22.592 21.975 L 23.685 23.085 24.937 21.576 L 26.189 20.067 25.833 18.999 L 25.477 17.931 23.488 19.398 M 7.719 19.615 L 7 20.333 7 22.620 L 7 24.907 9.624 26.703 L 12.248 28.500 15.124 31.473 L 18 34.446 20.876 31.473 L 23.752 28.500 26.376 26.703 L 29 24.907 29 22.512 L 29 20.118 28 19.500 L 27 18.882 27 19.891 L 27 20.900 23.929 25.450 L 20.858 30 17.942 30 L 15.025 30 12.263 25.750 L 9.500 21.500 8.969 20.198 L 8.437 18.896 7.719 19.615 M 17 26 L 17 27 18 27 L 19 27 19 26 L 19 25 18 25 L 17 25 17 26 M 15 27.500 L 15 28 15.500 28 L 16 28 16 27.500 L 16 27 15.500 27 L 15 27 15 27.500 M 20 27.500 L 20 28 20.500 28 L 21 28 21 27.500 L 21 27 20.500 27 L 20 27 20 27.500"/></svg>